<?xml version="1.0" encoding="UTF-8"?>
<svg width="40px" height="40px" viewBox="0 0 40 40" version="1.1" xmlns="http://www.w3.org/2000/svg" xmlns:xlink="http://www.w3.org/1999/xlink">
    <!-- Generator: Sketch 55.2 (78181) - https://sketchapp.com -->
    <title>HeaderIcon</title>
    <desc>Created with Sketch.</desc>
    <g id="Page-1" stroke="none" stroke-width="1" fill="none" fill-rule="evenodd">
        <g id="Desktop" transform="translate(-63.000000, -774.000000)">
            <g id="Projects" transform="translate(0.000000, 735.000000)">
                <g id="HeaderIcon" transform="translate(63.000000, 37.000000)">
                    <g id="iconBG-Copy" fill="#F3AA25">
                        <circle id="Oval-Copy-28" cx="20" cy="22" r="20"></circle>
                    </g>
                    <g id="Icons-/-90-Rule" transform="translate(11.000000, 11.000000)">
                        <path d="M9,6 L9,21 L3,21 L3,4 L3,1 L17,1 L17,6 L9,6 Z" id="Combined-Shape-Copy" fill="#FFFFFF" fill-rule="evenodd"></path>
                        <path d="M18.5,4.5 L18.5,0.5 L5.5,0.5 L5.5,19.5 L10.5,19.5 L10.5,4.5 L18.5,4.5 Z" id="Combined-Shape" stroke="#4B4A4A" stroke-width="1"></path>
                        <rect id="Rectangle" fill="#4B4A4A" fill-rule="evenodd" x="6" y="16" width="2" height="1"></rect>
                        <rect id="Rectangle-Copy-2" fill="#4B4A4A" fill-rule="evenodd" x="6" y="13" width="2" height="1"></rect>
                        <rect id="Rectangle-Copy-3" fill="#4B4A4A" fill-rule="evenodd" x="6" y="10" width="2" height="1"></rect>
                        <rect id="Rectangle-Copy-4" fill="#4B4A4A" fill-rule="evenodd" x="6" y="7" width="2" height="1"></rect>
                        <rect id="Rectangle-Copy-5" fill="#4B4A4A" fill-rule="evenodd" x="6" y="4" width="2" height="1"></rect>
                        <rect id="Rectangle" fill="#4B4A4A" fill-rule="evenodd" x="16" y="3" width="1" height="1"></rect>
                        <rect id="Rectangle-Copy-6" fill="#4B4A4A" fill-rule="evenodd" x="14" y="3" width="1" height="1"></rect>
                        <rect id="Rectangle-Copy-7" fill="#4B4A4A" fill-rule="evenodd" x="12" y="3" width="1" height="1"></rect>
                        <rect id="Rectangle-Copy-8" fill="#4B4A4A" fill-rule="evenodd" x="10" y="3" width="1" height="1"></rect>
                    </g>
                </g>
            </g>
        </g>
    </g>
</svg>